# xmcd CD database file
#
# Track frame offsets:
#	150
#	12097
#	26659
#	41048
#	56404
#	71693
#	86478
#	101016
#	112954
#	126781
#	141511
#	157600
#	173156
#	186338
#	201523
#	214280
#	227415
#	242670
#	259170
#	272350
#	284751
#	296580
#	310374
#	322069
#	335840
#
# Disc length: 4663 seconds
#
# Revision: 0
# Processed by: cddbd v1.5.1PL2 Copyright (c) Steve Scherf et al.
# Submitted via: CDex 1.51
#
DISCID=7d123519
DTITLE=バートン・クレーン - バートン・クレーン作品集
DYEAR=2006
DGENRE=Other
TTITLE0=酒がのみたい
TTITLE1=家へかえりたい
TTITLE2=ニッポン娘さん
TTITLE3=おいおいのぶ子さん
TTITLE4=人生はかない
TTITLE5=かわいそう
TTITLE6=月を眺めよ
TTITLE7=コンスタンチノープル
TTITLE8=威張って歩るけ
TTITLE9=夜中の銀ブラ
TTITLE10=仕方がない
TTITLE11=モダーン百万パーセント
TTITLE12=天の岩戸
TTITLE13=雪ちゃんは魔物だ
TTITLE14=酒場の唄
TTITLE15=ジョッキ ビール
TTITLE16=よういわんわ
TTITLE17=恋人に失恋した
TTITLE18=誰方かやるじゃろ
TTITLE19=女の天下
TTITLE20=金の世の中
TTITLE21=のんきなパパさん
TTITLE22=のんきなママさん
TTITLE23=アイ・ラヴ・ユー
TTITLE24=バナナは如何
EXTD=YEAR: 2006
EXTT0=
EXTT1=
EXTT2=
EXTT3=
EXTT4=
EXTT5=
EXTT6=
EXTT7=
EXTT8=
EXTT9=
EXTT10=
EXTT11=
EXTT12=
EXTT13=
EXTT14=
EXTT15=
EXTT16=
EXTT17=
EXTT18=
EXTT19=
EXTT20=
EXTT21=
EXTT22=
EXTT23=
EXTT24=
PLAYORDER=
